<?xml version="1.0" standalone="no"?>
<!DOCTYPE svg PUBLIC "-//W3C//DTD SVG 20010904//EN"
 "http://www.w3.org/TR/2001/REC-SVG-20010904/DTD/svg10.dtd">
<svg version="1.0" xmlns="http://www.w3.org/2000/svg"
 width="120.000000pt" height="120.000000pt" viewBox="0 0 120.000000 120.000000"
 preserveAspectRatio="xMidYMid meet">

<g transform="translate(0.000000,120.000000) scale(0.100000,-0.100000)"
fill="#000000" stroke="none">
<path d="M524 1173 c-3 -16 -7 -33 -9 -38 -1 -6 -20 -16 -41 -23 -31 -9 -42
-8 -66 6 l-28 16 -52 -52 c-41 -41 -50 -54 -40 -64 21 -21 14 -38 -18 -38 -20
0 -42 -11 -67 -33 -31 -29 -37 -41 -41 -90 -6 -71 1 -97 34 -130 14 -14 23
-31 19 -37 -11 -18 -64 -11 -105 15 -23 15 -54 25 -75 25 l-35 0 2 -197 3
-196 95 -32 c72 -24 100 -30 117 -22 17 7 28 5 52 -12 17 -12 31 -29 31 -36 0
-8 13 -21 29 -30 16 -8 32 -24 36 -35 3 -11 10 -20 15 -20 11 0 90 -79 106
-105 7 -12 21 -18 43 -17 19 0 44 -6 57 -14 30 -20 60 -10 79 27 9 16 22 29
30 29 9 0 20 11 26 24 6 13 20 27 30 29 10 3 23 16 28 30 5 13 19 27 30 30 12
3 26 18 31 34 9 24 37 42 185 116 l175 87 0 135 0 135 -25 0 c-15 0 -39 -7
-55 -15 -21 -11 -36 -12 -55 -5 -15 6 -37 10 -50 10 -30 0 -43 19 -24 34 33
25 49 61 49 114 0 85 -49 152 -112 152 -31 0 -31 0 -12 45 2 6 -18 33 -46 60
l-50 49 -28 -16 c-24 -14 -35 -15 -66 -6 -21 7 -40 17 -41 23 -2 5 -6 22 -9
38 -6 26 -8 27 -76 27 -68 0 -70 -1 -76 -27z m131 -40 c4 -22 18 -33 57 -50
48 -22 51 -22 79 -6 29 17 30 17 61 -15 28 -27 31 -35 23 -58 -6 -14 -22 -33
-37 -42 -26 -15 -28 -15 -48 11 -12 15 -43 39 -68 55 -40 23 -58 27 -122 27
-64 0 -82 -4 -122 -27 -25 -16 -56 -40 -67 -54 -26 -33 -56 -25 -79 22 -16 35
-16 35 16 67 31 31 32 31 61 14 28 -16 31 -16 79 6 39 17 53 28 57 50 6 25 10
27 55 27 45 0 49 -2 55 -27z m45 -128 c18 -9 46 -31 61 -48 26 -28 28 -36 23
-83 -9 -71 1 -117 33 -148 37 -37 20 -50 -63 -49 -71 1 -101 15 -74 36 53 41
68 142 30 204 -38 63 -120 81 -181 40 -43 -29 -59 -60 -59 -119 0 -57 11 -89
41 -117 34 -31 13 -45 -67 -44 -81 1 -92 10 -59 49 30 35 40 79 31 148 -6 51
-5 53 33 90 21 21 56 44 77 52 47 17 129 12 174 -11z m-339 -84 c25 -26 29
-37 29 -88 0 -53 -3 -62 -30 -88 -41 -39 -40 -70 4 -85 l34 -11 -16 -42 c-9
-23 -16 -43 -16 -44 -1 -1 -13 -4 -28 -8 -22 -6 -27 -3 -30 16 -2 16 -18 30
-50 46 -52 26 -59 38 -28 46 29 8 25 44 -10 84 -26 29 -30 42 -30 89 0 48 4
59 29 85 41 41 101 41 142 0z m302 8 c54 -42 55 -134 1 -190 -43 -45 -31 -69
46 -90 35 -9 70 -25 77 -35 15 -21 18 -114 3 -114 -5 0 -60 14 -122 31 -170
47 -189 51 -230 44 -29 -5 -38 -3 -38 7 0 29 28 50 90 67 55 15 65 22 68 42 2
17 -7 34 -28 54 -27 26 -30 35 -30 88 0 51 4 62 29 88 37 36 94 40 134 8z
m318 -8 c25 -26 29 -37 29 -85 0 -47 -4 -60 -30 -89 -44 -51 -40 -74 15 -89
25 -7 45 -17 45 -23 0 -8 -159 -91 -197 -103 -8 -2 -13 7 -13 25 0 15 -7 41
-15 57 -19 36 -20 34 18 44 44 11 47 43 8 88 -27 30 -31 43 -31 90 0 48 4 59
29 85 41 41 101 41 142 0z m-852 -263 c50 -29 70 -46 66 -56 -3 -8 -19 -69
-36 -135 -17 -67 -32 -124 -35 -128 -2 -4 -25 -1 -49 8 l-45 15 0 162 c0 90 3
166 7 169 11 11 17 9 92 -35z m1041 -114 l0 -104 -160 -80 c-88 -44 -165 -80
-171 -80 -6 0 -52 36 -101 80 -105 93 -120 96 -198 48 -48 -30 -52 -30 -68
-15 -24 25 -9 43 72 85 l67 36 67 -19 c114 -31 103 -33 297 68 99 52 183 93
188 90 4 -2 7 -51 7 -109z m-901 32 c6 -7 -4 -56 -27 -138 -30 -102 -41 -128
-55 -128 -29 0 -30 24 -8 122 38 164 39 167 61 161 11 -3 24 -10 29 -17z m277
-43 c24 -9 15 -18 -48 -48 -59 -28 -63 -32 -63 -64 0 -25 7 -39 27 -54 l27
-20 60 32 c33 17 66 31 74 31 20 0 192 -160 192 -179 0 -31 -36 -22 -89 23
-42 36 -56 43 -64 33 -8 -10 2 -23 44 -55 30 -23 54 -49 54 -57 0 -33 -32 -27
-90 19 -77 60 -95 42 -22 -21 51 -44 62 -65 42 -78 -12 -8 -41 10 -83 49 -15
14 -32 26 -36 26 -4 0 -13 11 -19 24 -6 13 -20 27 -31 31 -12 3 -21 13 -21 21
0 8 -13 23 -30 32 -16 9 -30 22 -30 28 0 18 -28 37 -56 37 -14 0 -38 -13 -54
-28 -27 -26 -29 -26 -59 -11 -17 9 -31 21 -31 27 0 26 54 181 64 185 70 27
194 36 242 17z m-139 -239 c7 -19 -34 -64 -59 -64 -26 0 -24 45 4 64 28 20 47
20 55 0z m57 -58 c9 -14 5 -22 -19 -42 -35 -28 -53 -30 -62 -8 -6 17 44 77 61
71 5 -2 14 -11 20 -21z m56 -52 c11 -13 9 -20 -16 -45 -20 -20 -36 -28 -47
-23 -24 9 -21 24 10 56 31 32 36 34 53 12z m58 -70 c3 -23 -42 -68 -62 -61
-21 7 -18 39 5 63 27 29 53 28 57 -2z m57 -55 c0 -15 -7 -25 -18 -27 -22 -4
-33 24 -17 43 18 21 35 13 35 -16z"/>
</g>
</svg>
