<?xml version="1.0" standalone="no"?>
<!DOCTYPE svg PUBLIC "-//W3C//DTD SVG 20010904//EN"
 "http://www.w3.org/TR/2001/REC-SVG-20010904/DTD/svg10.dtd">
<svg version="1.0" xmlns="http://www.w3.org/2000/svg"
 width="128.000000pt" height="128.000000pt" viewBox="0 0 128.000000 128.000000"
 preserveAspectRatio="xMidYMid meet">

<g transform="translate(0.000000,128.000000) scale(0.100000,-0.100000)"
fill="#000000" stroke="none">
<path d="M163 1116 c-99 -32 -157 -109 -157 -210 1 -130 90 -220 219 -220 137
-1 240 121 218 258 -20 122 -163 210 -280 172z"/>
<path d="M993 1116 c-100 -32 -157 -109 -157 -212 0 -218 279 -303 400 -122
54 80 54 166 0 246 -52 78 -157 116 -243 88z"/>
<path d="M0 565 l0 -35 291 0 291 0 -18 -27 c-32 -49 -204 -333 -204 -338 0
-3 126 -5 280 -5 154 0 280 2 280 5 0 5 -172 289 -204 338 l-18 27 291 0 291
0 0 35 0 35 -640 0 -640 0 0 -35z"/>
</g>
</svg>
