<?xml version="1.0" standalone="no"?>
<!DOCTYPE svg PUBLIC "-//W3C//DTD SVG 20010904//EN"
 "http://www.w3.org/TR/2001/REC-SVG-20010904/DTD/svg10.dtd">
<svg version="1.0" xmlns="http://www.w3.org/2000/svg"
 width="128.000000pt" height="128.000000pt" viewBox="0 0 128.000000 128.000000"
 preserveAspectRatio="xMidYMid meet">

<g transform="translate(0.000000,128.000000) scale(0.100000,-0.100000)"
fill="#000000" stroke="none">
<path d="M79 1243 c-1 -5 0 -41 1 -80 2 -68 0 -73 -19 -73 -12 0 -30 -9 -41
-20 -19 -19 -20 -33 -20 -415 0 -382 1 -396 20 -415 18 -18 33 -20 180 -20
l159 0 3 -92 c2 -58 7 -93 15 -95 7 -3 12 26 15 94 5 96 4 98 -21 118 -60 46
-221 212 -221 228 0 23 36 57 61 57 11 0 44 -22 73 -50 29 -27 56 -47 59 -43
4 3 7 42 7 85 0 63 -3 78 -15 78 -12 0 -15 -13 -15 -56 l0 -56 -40 36 c-62 56
-114 49 -157 -20 -9 -15 -12 60 -12 349 l-1 367 225 0 225 0 29 -27 c36 -33
34 -21 33 -319 l-2 -232 -27 -5 c-16 -3 -36 1 -47 9 -11 8 -33 14 -48 14 -23
0 -28 4 -28 26 0 19 4 25 14 21 16 -6 40 16 29 26 -3 4 -15 7 -25 7 -13 0 -18
8 -18 29 0 23 5 30 23 33 29 4 27 22 -4 28 -13 4 -39 13 -58 22 -35 16 -83 9
-97 -13 -3 -5 -37 -9 -75 -9 -52 0 -70 -3 -67 -12 3 -8 28 -14 66 -16 61 -3
62 -3 62 -32 0 -30 0 -30 -59 -30 -60 0 -86 -14 -60 -32 8 -5 38 -7 67 -5 49
3 52 2 52 -20 0 -14 6 -23 15 -23 12 0 15 15 15 73 0 77 9 97 45 97 40 0 45
-18 45 -152 0 -107 2 -128 15 -128 10 0 15 10 15 34 0 26 5 36 20 41 27 9 50
-11 50 -41 0 -29 26 -32 33 -4 3 14 14 20 31 20 21 0 28 -6 33 -30 7 -38 23
-49 30 -21 7 29 43 38 60 15 17 -23 16 -147 -1 -197 -8 -20 -26 -53 -40 -72
-26 -33 -27 -39 -24 -147 2 -93 6 -113 18 -113 11 0 15 12 15 45 l0 45 42 6
c50 6 54 10 68 52 l10 32 218 5 c202 5 220 7 233 24 11 16 14 79 14 337 0 297
-4 348 -27 326 -2 -3 -4 -134 -3 -291 l1 -286 -216 0 c-243 0 -267 -5 -308
-65 -15 -22 -28 -32 -32 -26 -3 6 5 25 19 41 13 17 30 46 37 65 l13 35 218 0
218 0 0 336 0 335 23 -3 c18 -2 23 -10 25 -46 4 -55 26 -51 30 6 3 46 -22 82
-59 82 -20 0 -21 5 -18 78 l4 77 -246 3 -246 2 -36 -25 -37 -24 -36 24 c-37
25 -38 25 -280 25 -134 0 -244 -3 -245 -7z m1091 -385 l0 -363 -200 0 -200 0
0 27 c0 62 -39 98 -90 85 -20 -5 -20 1 -21 251 -1 322 -3 302 32 335 l29 27
225 0 225 0 0 -362z m-1090 -143 l0 -335 52 0 c49 0 88 -19 88 -42 0 -4 -43
-8 -95 -8 l-95 0 0 353 c0 195 3 357 7 360 3 4 15 7 25 7 17 0 18 -17 18 -335z
m50 -264 c0 -5 3 -16 6 -25 4 -11 1 -16 -10 -16 -10 0 -16 9 -16 25 0 14 5 25
10 25 6 0 10 -4 10 -9z m1040 -16 l0 -25 -200 0 -200 0 0 25 0 25 200 0 200 0
0 -25z m-888 -152 c10 -9 18 -20 18 -25 0 -14 -246 -10 -259 5 -22 27 9 37
118 37 83 0 108 -3 123 -17z m957 4 c25 -31 -9 -37 -219 -37 -227 0 -225 0
-249 -63 -9 -24 -16 -28 -43 -25 -39 4 -52 36 -18 45 11 3 27 18 35 33 27 53
60 60 281 60 155 0 204 -3 213 -13z"/>
<path d="M835 1119 c-15 -23 16 -30 131 -27 98 2 119 6 119 18 0 12 -21 15
-122 18 -81 2 -124 -1 -128 -9z"/>
<path d="M767 1024 c-18 -19 18 -24 164 -24 124 0 160 3 157 13 -4 9 -46 13
-159 15 -86 1 -158 0 -162 -4z"/>
<path d="M765 920 c-11 -18 17 -21 170 -18 108 2 149 6 153 16 5 15 -313 18
-323 2z"/>
<path d="M765 820 c-11 -18 17 -21 170 -18 108 2 149 6 153 16 5 15 -313 18
-323 2z"/>
<path d="M767 733 c-4 -3 -2 -12 4 -20 9 -10 47 -13 153 -13 139 0 175 7 162
29 -8 12 -307 16 -319 4z"/>
<path d="M767 634 c-18 -18 15 -24 129 -24 104 0 124 2 124 15 0 13 -20 15
-123 15 -68 0 -127 -3 -130 -6z"/>
<path d="M265 1119 c-15 -23 16 -30 131 -27 98 2 119 6 119 18 0 12 -21 15
-122 18 -81 2 -124 -1 -128 -9z"/>
<path d="M197 1024 c-4 -4 -7 -11 -7 -16 0 -12 319 -5 323 7 2 11 -305 20
-316 9z"/>
<path d="M192 918 c6 -16 317 -19 321 -3 1 6 -59 11 -161 13 -129 2 -163 0
-160 -10z"/>
<path d="M197 633 c-17 -16 -3 -23 48 -23 42 0 55 3 55 15 0 11 -12 15 -48 15
-27 0 -52 -3 -55 -7z"/>
</g>
</svg>
