<?xml version="1.0" standalone="no"?>
<!DOCTYPE svg PUBLIC "-//W3C//DTD SVG 20010904//EN"
 "http://www.w3.org/TR/2001/REC-SVG-20010904/DTD/svg10.dtd">
<svg version="1.0" xmlns="http://www.w3.org/2000/svg"
 width="128.000000pt" height="128.000000pt" viewBox="0 0 128.000000 128.000000"
 preserveAspectRatio="xMidYMid meet">

<g transform="translate(0.000000,128.000000) scale(0.100000,-0.100000)"
fill="#000000" stroke="none">
<path d="M565 1256 c-60 -11 -115 -24 -122 -29 -6 -4 -62 -159 -123 -345 -93
-278 -118 -343 -144 -372 l-32 -35 168 -165 168 -164 32 32 c28 27 80 48 368
143 184 61 339 115 343 119 5 4 19 59 33 121 20 95 22 116 10 127 -15 15 -183
55 -206 49 -8 -2 -136 -97 -284 -210 -147 -114 -271 -207 -275 -207 -4 0 -19
13 -34 28 l-27 28 286 219 286 220 -7 75 c-10 107 -11 107 -107 117 -46 4 -86
8 -89 8 -3 0 -101 -127 -217 -282 -117 -156 -215 -283 -219 -283 -4 0 -19 12
-34 26 l-27 26 217 292 218 291 -9 85 c-6 47 -15 91 -20 98 -13 15 -19 15
-153 -12z"/>
<path d="M63 398 c-103 -113 -65 -302 74 -369 62 -30 144 -30 205 0 94 45 98
37 -90 224 l-168 168 -21 -23z"/>
</g>
</svg>
