<?xml version="1.0" standalone="no"?>
<!DOCTYPE svg PUBLIC "-//W3C//DTD SVG 20010904//EN"
 "http://www.w3.org/TR/2001/REC-SVG-20010904/DTD/svg10.dtd">
<svg version="1.0" xmlns="http://www.w3.org/2000/svg"
 width="128.000000pt" height="128.000000pt" viewBox="0 0 128.000000 128.000000"
 preserveAspectRatio="xMidYMid meet">

<g transform="translate(0.000000,128.000000) scale(0.100000,-0.100000)"
fill="#000000" stroke="none">
<path d="M561 1055 c-47 -52 -88 -95 -93 -95 -5 0 -40 16 -78 35 l-69 35 -88
-76 c-48 -41 -89 -82 -91 -89 -7 -31 28 -13 104 54 l79 69 77 -39 76 -38 94
104 c51 58 93 110 93 117 0 30 -27 10 -104 -77z"/>
<path d="M595 1008 c-3 -7 -6 -55 -7 -107 -2 -65 -7 -96 -15 -99 -8 -2 -13 6
-13 23 0 26 -1 26 -67 23 l-68 -3 -3 -112 c-2 -90 -6 -113 -17 -113 -12 0 -15
26 -17 143 l-3 142 -60 0 -60 0 -5 -140 c-4 -116 -8 -140 -20 -140 -12 0 -16
18 -18 93 l-3 92 -64 0 -64 0 -3 -92 -3 -93 -30 -5 c-36 -6 -56 -41 -53 -90
l3 -35 257 -5 256 -5 34 -50 c85 -124 246 -171 377 -110 50 24 55 24 72 9 10
-9 15 -23 12 -31 -7 -17 105 -136 149 -159 54 -28 112 10 112 72 0 30 -10 45
-74 109 -47 47 -83 75 -96 75 -40 0 -48 24 -22 72 19 36 23 58 23 133 0 78 -4
97 -27 141 -30 57 -77 103 -141 136 -33 18 -59 23 -124 23 l-82 0 -3 55 -3 55
-63 3 c-44 2 -64 -1 -67 -10z m95 -72 c0 -35 -5 -47 -25 -60 -13 -9 -27 -16
-30 -16 -3 0 -5 27 -5 60 l0 60 30 0 c29 0 30 -2 30 -44z m233 -88 c87 -38
157 -145 157 -243 0 -155 -150 -290 -302 -272 -153 18 -270 173 -240 317 38
181 213 271 385 198z m-565 -100 l-3 -123 -32 -3 -33 -3 0 125 0 126 35 0 36
0 -3 -122z m171 42 c1 -14 -5 -58 -15 -97 -14 -57 -22 -73 -36 -73 -16 0 -18
10 -18 101 l0 100 33 -3 c25 -2 33 -8 36 -28z m-341 -92 l3 -78 -36 0 -35 0 0
73 c0 41 3 77 7 81 4 4 19 6 33 4 24 -3 25 -6 28 -80z m312 -120 c0 -7 3 -23
6 -35 l6 -23 -236 0 -236 0 0 28 c0 16 3 32 7 35 3 4 107 7 230 7 172 0 223
-3 223 -12z m559 -225 c-10 -11 -15 -11 -30 3 -15 13 -16 20 -8 31 10 11 15
11 30 -3 15 -13 16 -20 8 -31z m118 -55 c63 -62 75 -92 51 -116 -25 -25 -54
-11 -118 53 l-64 65 29 30 c16 16 31 30 34 30 3 0 34 -28 68 -62z"/>
<path d="M720 804 c-107 -46 -159 -174 -115 -282 24 -57 82 -110 140 -128 184
-54 342 140 254 312 -35 69 -111 114 -189 114 -30 -1 -71 -8 -90 -16z m190
-48 c95 -62 107 -212 23 -288 -55 -50 -144 -61 -213 -25 -69 35 -64 47 19 47
l71 0 0 47 c0 53 -20 83 -57 83 -22 0 -23 3 -23 75 0 69 2 76 23 85 38 17 113
5 157 -24z m-216 -34 c-1 -7 -2 -32 -2 -57 -2 -45 -2 -45 -38 -45 -34 0 -36 1
-29 28 13 55 73 119 69 74z m74 -144 c7 -7 12 -22 12 -35 0 -22 -4 -23 -70
-23 -66 0 -71 1 -80 26 -6 14 -10 30 -10 35 0 14 134 11 148 -3z"/>
</g>
</svg>
