<?xml version="1.0" standalone="no"?>
<!DOCTYPE svg PUBLIC "-//W3C//DTD SVG 20010904//EN"
 "http://www.w3.org/TR/2001/REC-SVG-20010904/DTD/svg10.dtd">
<svg version="1.0" xmlns="http://www.w3.org/2000/svg"
 width="128.000000pt" height="128.000000pt" viewBox="0 0 128.000000 128.000000"
 preserveAspectRatio="xMidYMid meet">

<g transform="translate(0.000000,128.000000) scale(0.100000,-0.100000)"
fill="#000000" stroke="none">
<path d="M581 1214 c-148 -162 -220 -342 -224 -564 -2 -87 -7 -121 -19 -140
-9 -14 -24 -52 -33 -84 -22 -76 -15 -157 22 -240 l28 -61 7 68 c5 37 18 87 29
110 l22 42 23 -53 23 -52 181 0 181 0 23 50 c17 37 26 47 33 38 24 -31 38 -88
38 -151 l0 -68 32 66 c54 114 54 224 -1 327 -19 37 -23 59 -24 153 -2 214 -75
397 -223 559 -28 31 -55 56 -59 56 -4 0 -31 -25 -59 -56z m111 -46 c53 -63 88
-113 88 -125 0 -4 -63 -8 -140 -8 -77 0 -140 4 -140 8 0 20 125 177 140 177 5
0 28 -24 52 -52z m137 -217 c80 -186 80 -415 -1 -609 l-30 -72 -158 0 -158 0
-30 73 c-82 199 -82 416 0 610 l20 47 168 0 168 0 21 -49z m-444 -524 c9 -39
8 -47 -23 -102 l-33 -60 4 80 c4 79 21 144 34 131 4 -4 12 -26 18 -49z m554 1
c7 -24 11 -70 9 -103 l-3 -60 -30 62 c-30 60 -31 78 -10 141 8 22 21 5 34 -40z"/>
<path d="M571 832 c-48 -26 -73 -75 -68 -133 10 -123 148 -173 235 -86 88 88
26 237 -98 237 -19 0 -51 -8 -69 -18z m141 -51 c27 -24 33 -36 33 -70 0 -58
-48 -106 -105 -106 -57 0 -105 48 -105 106 0 56 46 99 105 99 30 0 48 -7 72
-29z"/>
<path d="M620 140 c0 -63 2 -70 20 -70 18 0 20 7 20 70 0 63 -2 70 -20 70 -18
0 -20 -7 -20 -70z"/>
<path d="M520 80 c0 -56 3 -70 15 -70 11 0 15 11 15 39 0 21 3 53 6 70 6 27 4
31 -15 31 -19 0 -21 -5 -21 -70z"/>
<path d="M724 119 c3 -17 6 -49 6 -70 0 -28 4 -39 15 -39 12 0 15 14 15 70 0
65 -2 70 -21 70 -19 0 -21 -4 -15 -31z"/>
</g>
</svg>
