<?xml version="1.0" standalone="no"?>
<!DOCTYPE svg PUBLIC "-//W3C//DTD SVG 20010904//EN"
 "http://www.w3.org/TR/2001/REC-SVG-20010904/DTD/svg10.dtd">
<svg version="1.0" xmlns="http://www.w3.org/2000/svg"
 width="128.000000pt" height="128.000000pt" viewBox="0 0 128.000000 128.000000"
 preserveAspectRatio="xMidYMid meet">

<g transform="translate(0.000000,128.000000) scale(0.100000,-0.100000)"
fill="#000000" stroke="none">
<path d="M748 1141 c-84 -27 -138 -84 -138 -145 0 -136 223 -306 296 -225 19
21 22 76 12 194 -2 24 1 31 18 33 25 3 31 -13 40 -105 8 -72 -9 -138 -43 -169
-55 -51 -176 -19 -272 71 -53 49 -101 132 -101 173 0 24 -1 25 -63 18 -258
-26 -473 -184 -489 -360 -4 -51 11 -55 41 -11 13 19 27 35 31 35 4 0 13 -19
20 -42 6 -24 23 -61 36 -83 37 -64 54 -148 54 -266 l0 -107 36 -12 c35 -12
122 -8 144 5 6 3 10 33 10 66 0 65 18 112 49 129 11 5 47 10 81 10 55 0 65 -3
91 -29 26 -27 29 -35 29 -99 0 -70 0 -70 31 -81 39 -14 99 -14 133 -1 22 8 26
16 26 52 1 179 66 324 184 410 88 64 118 26 91 -113 -22 -117 -16 -186 22
-247 34 -54 73 -85 96 -77 28 11 30 42 5 75 -32 44 -28 121 11 226 44 121 57
230 37 324 -22 104 -60 175 -130 246 -79 79 -145 106 -271 110 -49 2 -102 -1
-117 -5z"/>
</g>
</svg>
