<?xml version="1.0" standalone="no"?>
<!DOCTYPE svg PUBLIC "-//W3C//DTD SVG 20010904//EN"
 "http://www.w3.org/TR/2001/REC-SVG-20010904/DTD/svg10.dtd">
<svg version="1.0" xmlns="http://www.w3.org/2000/svg"
 width="128.000000pt" height="128.000000pt" viewBox="0 0 128.000000 128.000000"
 preserveAspectRatio="xMidYMid meet">

<g transform="translate(0.000000,128.000000) scale(0.100000,-0.100000)"
fill="#000000" stroke="none">
<path d="M640 1105 c0 -110 4 -175 10 -175 6 0 10 65 10 175 0 110 -4 175 -10
175 -6 0 -10 -65 -10 -175z"/>
<path d="M710 1125 l0 -85 140 0 140 0 0 85 0 85 -140 0 -140 0 0 -85z"/>
<path d="M1040 1055 l0 -65 -35 0 c-28 0 -35 -4 -35 -20 0 -19 7 -20 126 -20
97 0 124 3 120 13 -25 62 -28 84 -12 115 9 17 16 33 16 37 0 3 -40 5 -90 5
l-90 0 0 -65z"/>
<path d="M185 1075 c-47 -46 -24 -125 42 -141 34 -9 74 13 91 50 40 82 -68
156 -133 91z"/>
<path d="M52 864 c-43 -30 -52 -65 -52 -197 0 -111 2 -127 21 -151 11 -14 29
-26 40 -26 18 0 19 9 19 155 l0 155 30 0 30 0 0 -400 0 -400 40 0 40 0 0 210
0 210 25 0 25 0 0 -210 0 -210 40 0 40 0 0 400 0 400 158 0 c141 0 161 2 175
18 10 10 17 28 17 40 l0 22 -313 0 c-267 0 -316 -2 -335 -16z"/>
<path d="M640 400 c0 -227 4 -350 10 -350 6 0 10 123 10 350 0 227 -4 350 -10
350 -6 0 -10 -123 -10 -350z"/>
</g>
</svg>
