<svg width="40" height="32" viewBox="0 0 40 32" fill="none" xmlns="http://www.w3.org/2000/svg">
<path fill-rule="evenodd" clip-rule="evenodd" d="M6.7083 0.766602C3.49124 0.766602 0.883301 3.37454 0.883301 6.5916V26.0083C0.883301 29.2253 3.49124 31.8333 6.7083 31.8333H33.8916C37.1087 31.8333 39.7166 29.2253 39.7166 26.0083V6.5916C39.7166 3.37454 37.1087 0.766602 33.8916 0.766602H6.7083ZM4.94394 5.77987C5.2513 5.11289 5.92574 4.64993 6.7083 4.64993H33.8916C34.6742 4.64993 35.3486 5.11289 35.656 5.77987L21.492 16.7963C20.7909 17.3416 19.8091 17.3416 19.1079 16.7963L4.94394 5.77987ZM4.76663 10.5616V21.8627L11.7811 16.0173L4.76663 10.5616ZM4.9276 26.7836C5.2269 27.4701 5.91156 27.9499 6.7083 27.9499H33.8916C34.6884 27.9499 35.373 27.4701 35.6723 26.7836L25.6812 18.4576L23.8762 19.8616C21.7727 21.4976 18.8272 21.4976 16.7238 19.8616L14.9187 18.4576L4.9276 26.7836ZM35.8333 21.8627V10.5616L28.8188 16.0173L35.8333 21.8627Z" fill="white"/>
</svg>
