<svg xmlns="http://www.w3.org/2000/svg" viewBox="0 0 68.05 72.5"><defs><style>.cls-1{fill:#fff;}</style></defs><title>Ativo 7MarketplaceIcons</title><g id="Camada_2" data-name="Camada 2"><g id="Camada_3" data-name="Camada 3"><rect class="cls-1" x="2.22" y="1.17" width="2" height="69.11"/><polygon class="cls-1" points="6.44 5.96 3.22 2.73 0 5.96 0 3.22 3.22 0 6.44 3.22 6.44 5.96"/><polygon class="cls-1" points="3.87 54.95 2.58 53.42 17.63 40.7 22.67 45.75 33.37 20.46 49.96 27.5 65.32 10.22 66.81 11.55 50.5 29.9 34.43 23.09 23.36 49.26 17.52 43.42 3.87 54.95"/><rect class="cls-1" x="2.22" y="68.28" width="64.65" height="2"/><polygon class="cls-1" points="62.09 72.5 65.31 69.28 62.09 66.06 64.83 66.06 68.05 69.28 64.83 72.5 62.09 72.5"/><polygon class="cls-1" points="3.79 60.04 2.65 58.4 13.59 50.76 22.72 56.53 35.27 37.45 46.92 50.62 65.48 37.29 66.65 38.92 46.62 53.3 35.5 40.73 23.31 59.27 13.64 53.16 3.79 60.04"/></g></g></svg>