<svg xmlns="http://www.w3.org/2000/svg" viewBox="0 0 82.26 81.86"><defs><style>.cls-1{fill:#fff;}</style></defs><title>Ativo 3MarketplaceIcons</title><g id="Camada_2" data-name="Camada 2"><g id="Camada_3" data-name="Camada 3"><path class="cls-1" d="M0,73.27V0H49.15ZM2,2V66.7L45.4,2Z"/><path class="cls-1" d="M7.71,46.23V8.14h26Zm2-36.09V39.76L30,10.14Z"/><rect class="cls-1" y="58.7" width="4.57" height="2"/><rect class="cls-1" y="51.85" width="4.57" height="2"/><rect class="cls-1" y="44.99" width="4.57" height="2"/><rect class="cls-1" y="38.14" width="4.57" height="2"/><rect class="cls-1" y="31.28" width="4.57" height="2"/><rect class="cls-1" y="24.42" width="4.57" height="2"/><rect class="cls-1" y="17.57" width="4.57" height="2"/><rect class="cls-1" y="10.71" width="4.57" height="2"/><rect class="cls-1" y="3.86" width="4.57" height="2"/><polygon class="cls-1" points="76.47 13.04 74.47 13.04 74.47 4.28 66.31 4.28 58.46 6.66 65.44 6.66 65.44 5.84 70.72 5.84 70.72 13.04 68.72 13.04 68.72 7.84 67.44 7.84 67.44 8.66 56.13 8.66 56.13 5.28 66.16 2.28 76.47 2.28 76.47 13.04"/><path class="cls-1" d="M72.63,32.19H67.08V16.6l-1.21-.05-9.74-3V10.22h11V11h5.47Zm-3.55-2h1.55V13H65.16v-.82h-6.7l7.85,2.38h2.77Z"/><path class="cls-1" d="M78.11,32.12H72.28V11h5.83Zm-3.83-2h1.83V13H74.28Z"/><polygon class="cls-1" points="78.34 7.29 74.47 7.29 74.47 3.38 82.26 3.38 78.34 7.29"/><polygon class="cls-1" points="82.26 10.85 74.47 10.85 74.47 7.35 78.75 7.35 82.26 10.85"/><polygon class="cls-1" points="76.19 46.42 68.63 46.42 68.63 30.19 70.63 30.19 70.63 44.42 74.19 44.42 74.19 30.19 76.19 30.19 76.19 46.42"/><path class="cls-1" d="M44.77,41.54a6.87,6.87,0,1,1,6.86-6.86A6.87,6.87,0,0,1,44.77,41.54Zm0-11.73a4.87,4.87,0,1,0,4.86,4.87A4.88,4.88,0,0,0,44.77,29.81Z"/><path class="cls-1" d="M44.77,39.08a4.41,4.41,0,1,1,4.4-4.4A4.4,4.4,0,0,1,44.77,39.08Zm0-6.81a2.41,2.41,0,1,0,2.4,2.41A2.41,2.41,0,0,0,44.77,32.27Z"/><polygon class="cls-1" points="32.54 81.86 39.42 37.28 41.4 37.59 35.45 76.12 38.09 73.47 42.54 39.42 44.52 39.68 39.99 74.41 32.54 81.86"/><polygon class="cls-1" points="57.4 81.86 49.95 74.41 45.42 39.68 47.4 39.42 51.85 73.47 54.49 76.12 48.54 37.59 50.52 37.28 57.4 81.86"/><path class="cls-1" d="M45.38,62.67a30.41,30.41,0,0,1-4.84-.4l-1-.16.31-2,1,.15c14.3,2.27,18.21-6.22,19-8.53l-1.37-1.25c-4,10.71-17.34,7.69-17.48,7.65l-1-.23L40.48,56l1,.23C42,56.34,54.3,59.09,57,48.47l.41-1.61L62.1,51.1l-.14.57C61.93,51.8,59.19,62.67,45.38,62.67Z"/><polygon class="cls-1" points="47.54 29.98 45.54 29.98 45.54 20.54 44.4 20.54 44.4 29.98 42.4 29.98 42.4 18.54 47.54 18.54 47.54 29.98"/></g></g></svg>