<svg xmlns="http://www.w3.org/2000/svg" viewBox="0 0 92 69.19"><defs><style>.cls-1{fill:#fff;}</style></defs><title>Ativo 5MarketplaceIcons</title><g id="Camada_2" data-name="Camada 2"><g id="Camada_3" data-name="Camada 3"><path class="cls-1" d="M53.4,68.3A129.93,129.93,0,0,1,52.1,19l2,.33a127.87,127.87,0,0,0,1.29,48.57Z"/><path class="cls-1" d="M52.54,20.91l.31-2c.25-1.58,2.53-15.44,7-18.31A3.36,3.36,0,0,1,62.63.13a4.86,4.86,0,0,1,3.61,4.32c.48,4.11-3,10.48-11.91,15.45ZM61.73,2a1.48,1.48,0,0,0-.79.26c-2.7,1.73-4.79,9.93-5.73,14.79,6.69-4.28,9.4-9.3,9.05-12.37a2.89,2.89,0,0,0-2.19-2.63A1.06,1.06,0,0,0,61.73,2Z"/><path class="cls-1" d="M51.55,31.05l.48-1.8c.2-.76,5.11-18.66,14.29-17.08,3.2.55,5.14,2.15,5.31,4.4.35,4.67-6.66,10-18.32,13.89Zm13.67-17c-5.08,0-9,8.7-10.71,13.84,10.67-3.87,15.33-8.45,15.12-11.2C69.5,15,67.29,14.37,66,14.14A4.87,4.87,0,0,0,65.22,14.08Z"/><path class="cls-1" d="M50.58,40.19l.62-1.78c.18-.5,4.35-12.11,11.89-11.09,3.74.51,4.4,2.21,4.46,3.18.2,3.2-5.46,6.64-15.15,9.2ZM62.16,29.25c-4,0-7,5.12-8.29,8,8.61-2.54,11.77-5.35,11.69-6.6,0-.48-.89-1.07-2.74-1.32A4.89,4.89,0,0,0,62.16,29.25Z"/><path class="cls-1" d="M51,49l.58-1.73C51.8,46.68,56.19,34,64.8,35.08c4.35.56,5.11,2.44,5.17,3.51.2,3.49-6.21,7.2-17.16,9.92ZM63.78,37c-4.88,0-8.17,6-9.54,9C64.36,43.31,68.06,40.14,68,38.71c0-.56-1-1.32-3.42-1.64A6.78,6.78,0,0,0,63.78,37Z"/><path class="cls-1" d="M52.27,54.88l-1.85-.05c-8.65-.24-14.08-2-14.52-4.79-.13-.87.12-2.51,3.35-3.66,6.31-2.25,11.82,6.55,12,6.93ZM41.35,48a4.25,4.25,0,0,0-1.43.24c-1.57.56-2.08,1.2-2,1.47.13.83,2.92,2.55,10.56,3C47,50.87,44.23,48,41.35,48Z"/><path class="cls-1" d="M52.28,48.18l-1.86-.06c-11.37-.32-18.49-2.59-19-6.07-.17-1,.16-3,4.25-4.49,8.16-2.92,15.37,8.55,15.67,9Zm-14-9.09a6,6,0,0,0-2,.35c-2.31.83-3,1.75-2.95,2.3.23,1.42,4.56,3.75,15.12,4.3C46.59,43.57,42.6,39.09,38.31,39.09Z"/><path class="cls-1" d="M51.77,39.82,50,39.74c-11.24-.51-18.29-3-18.86-6.63-.17-1.12.16-3.22,4.31-4.74,8.18-3,15.18,9.35,15.47,9.88ZM38,29.91a5.3,5.3,0,0,0-1.9.34c-2,.73-3.15,1.71-3,2.55.25,1.6,4.48,4.1,15,4.83C46.35,35,42.36,29.91,38,29.91Z"/><path class="cls-1" d="M52.2,31.52l-1.84-.17c-9-.85-14.6-3.26-15.06-6.46-.11-.78,0-2.75,3.33-4.08,6.48-2.56,12.45,8.6,12.7,9.08ZM40.6,22.44a3.27,3.27,0,0,0-1.23.23c-1.4.56-2.18,1.28-2.09,1.94.19,1.32,3.38,3.51,11.3,4.53C46.78,26.33,43.6,22.44,40.6,22.44Z"/><path class="cls-1" d="M52.51,22.19l-1.78-.08C42.8,21.76,38,20,37.6,17.31c-.11-.69,0-2.43,3.14-3.59,5.84-2.14,10.71,6.54,10.91,6.91Zm-9.92-6.8a3.35,3.35,0,0,0-1.16.21c-1.29.47-1.91,1.06-1.86,1.41.12.78,2.58,2.43,9.28,3C47.52,18.15,45.11,15.39,42.59,15.39Z"/><path class="cls-1" d="M53.33,20.37l-1.65-.88C41.6,14.19,36.19,9,37.21,5.74c.31-1,1.46-2.61,5.76-2.13,8.61,1,10.11,14.33,10.17,14.9ZM41.49,5.52c-1.46,0-2.24.37-2.37.8-.42,1.35,2.46,5.3,11.71,10.44C50.11,13.25,48,6.2,42.74,5.6A11.66,11.66,0,0,0,41.49,5.52Z"/><path class="cls-1" d="M51.33,54.41l.74-1.79c.14-.35,3.51-8.41,9.37-7.71,3,.36,3.53,1.69,3.57,2.46.19,3.41-8.18,5.75-11.79,6.6Zm9.4-7.54c-2.65,0-4.71,2.69-5.84,4.61,6.57-1.8,8.11-3.61,8.13-4h0s-.32-.4-1.82-.59A3.77,3.77,0,0,0,60.73,46.87Z"/><polygon class="cls-1" points="30.66 69.19 29.04 63.19 27.5 66.85 23.16 62.88 24.1 67.83 0 67.83 0 65.83 21.69 65.83 20.08 57.36 26.76 63.46 29.46 57.05 31.23 63.63 34.49 57.19 34.49 67.09 59.62 67.09 59.62 58.56 63.02 61.92 63.02 55.25 67.68 60.89 72.22 53.04 72.22 62.48 77.86 62.48 74.47 67.09 92 67.09 92 69.09 70.52 69.09 73.91 64.48 70.22 64.48 70.22 60.5 67.98 64.39 65.02 60.8 65.02 66.71 61.62 63.36 61.62 69.09 32.49 69.09 32.49 65.57 30.66 69.19"/></g></g></svg>