<svg xmlns="http://www.w3.org/2000/svg" viewBox="0 0 51.7 81.48"><defs><style>.cls-1{fill:#fff;}</style></defs><title>Ativo 4MarketplaceIcons</title><g id="Camada_2" data-name="Camada 2"><g id="Camada_3" data-name="Camada 3"><path class="cls-1" d="M24.66,48.47l-20-27.64,16.64-12,20,27.64ZM7.44,21.28l17.67,24.4L38.51,36,20.84,11.58Z"/><path class="cls-1" d="M9.33,19,0,6.11,8.43,0l9.33,12.88ZM2.79,6.55l7,9.64L15,12.43,8,2.79Z"/><path class="cls-1" d="M31.22,48.79l-3.61-5,10-7.25,3.61,5Zm-.81-4.54L31.67,46l6.77-4.9-1.27-1.74Z"/><path class="cls-1" d="M28.31,64.67l-1-.29c-8-2.35-13.81-8.66-14.81-16.07a18.93,18.93,0,0,1,3.21-12.89l.56-.83L18,35.7l-.56.83A17,17,0,0,0,14.52,48c.89,6.63,6.15,12.29,13.4,14.43l1,.28Z"/><path class="cls-1" d="M25.75,71.09l-1-.21C23.37,70.6,11,67.74,6.13,56.19c-2-4.76-3.26-12.59,1.93-22.95a30.47,30.47,0,0,1,3-4.73l.61-.8,1.59,1.22-.61.79a28.43,28.43,0,0,0-2.76,4.42C6,41.91,5.33,49.07,8,55.42,12.4,66,23.88,68.66,25.17,68.93l1,.2Z"/><path class="cls-1" d="M51.61,81.48H12.44V69H51.61Zm-37.17-2H49.61V71H14.44Z"/><path class="cls-1" d="M49.32,61.66H26.73v-8.1H49.32Zm-20.59-2H47.32v-4.1H28.73Z"/><path class="cls-1" d="M36.93,70.81H26.73V60.61h10.2Zm-8.2-2h6.2v-6.2h-6.2Z"/><path class="cls-1" d="M47,20.06h-.2a4.51,4.51,0,0,1-3.65-2.14,4.64,4.64,0,0,1-.29-4.34l4-8.8h1.37l.32.68L51.45,14a4.53,4.53,0,0,1-1.58,5.15A4.73,4.73,0,0,1,47,20.06Zm.39-11.69-2.71,6a2.67,2.67,0,0,0,.17,2.47,2.51,2.51,0,0,0,2,1.2H47a2.79,2.79,0,0,0,1.65-.54,2.59,2.59,0,0,0,.87-2.9Z"/></g></g></svg>