<?xml version="1.0" encoding="UTF-8" standalone="no"?>
<svg
   xmlns:dc="http://purl.org/dc/elements/1.1/"
   xmlns:cc="http://creativecommons.org/ns#"
   xmlns:rdf="http://www.w3.org/1999/02/22-rdf-syntax-ns#"
   xmlns:svg="http://www.w3.org/2000/svg"
   xmlns="http://www.w3.org/2000/svg"
   id="svg44"
   version="1.1"
   viewBox="0 0 78.92 70.39">
  <metadata
     id="metadata48">
    <rdf:RDF>
      <cc:Work
         rdf:about="">
        <dc:format>image/svg+xml</dc:format>
        <dc:type
           rdf:resource="http://purl.org/dc/dcmitype/StillImage" />
      </cc:Work>
    </rdf:RDF>
  </metadata>
  <defs
     id="defs4">
    <style
       id="style2">.cls-1{fill:#fff;}</style>
  </defs>
  <title
     id="title6">Ativo 2MarketplaceIcons</title>
  <g
     data-name="Camada 2"
     id="Camada_2">
    <g
       data-name="Camada 3"
       id="Camada_3">
      <path
         id="path8"
         d="M77.88,20.94A6.2,6.2,0,0,0,74.76,18a.61.61,0,0,1-.37-.41c-.84-2.94-4.12-12.06-12.73-12.78a.3.3,0,0,1-.13,0h0l-.49,0-.3,0a.26.26,0,0,1-.23-.06h0a9.87,9.87,0,0,0-6-3.36A6.82,6.82,0,0,0,50,2.55a.66.66,0,0,1-.77,0c-2.06-1.6-7-4.15-14.87-1.07a.62.62,0,0,1-.38,0C31.59,1,22.14-.57,17.84,6.42a.63.63,0,0,1-.31.27c-2.82,1.1-14.38,6.16-13.88,14.9l-.18.2a14.31,14.31,0,0,0-.58,18A14.77,14.77,0,0,0,17.6,45.1a.65.65,0,0,1,.78.58A8.76,8.76,0,0,0,21.19,52c3,2.56,7.92,2.86,14.76.9a.65.65,0,0,1,.73.27,6.89,6.89,0,0,0,3.19,2.72,8,8,0,0,0,5.71-.06.64.64,0,0,1,.81.39c1.36,3.88,4.72,12.45,8.26,13.93a3.19,3.19,0,0,0,1.22.26,2.85,2.85,0,0,0,1.27-.3c4-2,4.12-10.71,4-14.46a.64.64,0,0,1,.54-.66c4.71-.81,11.5-3.59,11.88-9.94a.43.43,0,0,0,0-.05v0h0a.26.26,0,0,1,.1-.13.71.71,0,0,0,.09-.07,1.9,1.9,0,0,1,.25-.24l.06,0c1.75-1.72,5.29-5.89,3.51-10.06a.67.67,0,0,1,0-.44C78.22,31.84,80.07,25.15,77.88,20.94ZM75.33,34.8a4.28,4.28,0,0,1,.35.84,3.28,3.28,0,0,1,.21.65,3.68,3.68,0,0,1-.5,2.64,14.49,14.49,0,0,1-3.62,4.71l-.4.32v.51c0,7.49-11.43,8.57-11.54,8.58l-.44,0a.64.64,0,0,0-.59.69l0,.43c.39,4.69,0,12.63-2.68,14a.74.74,0,0,1-.66,0c-2.57-1.08-6-9.38-7.62-14.36l-.12-.36a.65.65,0,0,0-.82-.42l-.29.09c-.42.13-.82.34-1.25.46a6.26,6.26,0,0,1-4.67.33,5.16,5.16,0,0,1-2.67-2.8l-.14-.41a.67.67,0,0,0-.82-.41l-.41.14c-6.68,2.13-11.54,2.11-14,0-2.77-2.37-2-6.75-2-6.79l.14-.77a.65.65,0,0,0-.88-.71l-.74.29A12.62,12.62,0,0,1,4.63,38.46a12.17,12.17,0,0,1,.51-15.28l.1-.12c1.08.17,2.08,2,2.71,3.13.11.21.21.4.31.57l.22.38a.65.65,0,0,0,.89.24l.76-.42a.63.63,0,0,0,.25-.87l-.22-.38-.29-.53C9.12,23.82,8,21.76,6.25,21.1a.63.63,0,0,1-.4-.66c.64-7.51,12.87-11.91,13-12l.4-.14.2-.36C23.34.81,33.89,3.65,34,3.68l.36.1.36-.14c9.42-3.9,13.82,1.09,14,1.3l.29.35a.67.67,0,0,0,.94.07l.34-.3a5.15,5.15,0,0,1,3.93-1.5c2.72.25,4.81,2.92,4.83,2.95L59.4,7l.58,0c9.81-.49,12.4,11.49,12.5,12l.06.26a.61.61,0,0,0,.46.49l.25.07.1,0,.36.08a.28.28,0,0,1,.15.1,4.09,4.09,0,0,1,2.08,1.94c2.15,4.12-.66,11.92-.69,12l-.16.46Z"
         class="cls-1" />
      <path
         id="path10"
         d="M73.74,44.75l.13-.14-.5-.74c-7-10.37-35.68,5.94-36.9,6.64l-.38.22a.63.63,0,0,0-.23.87l.44.75a.65.65,0,0,0,.89.23l.38-.22c7.79-4.48,29.09-14.53,34-7.3l.24.36a.66.66,0,0,0,.9.18l.69-.45a.5.5,0,0,0,.17-.23.28.28,0,0,1,.09-.1A.31.31,0,0,0,73.74,44.75Z"
         class="cls-1" />
      <path
         id="path12"
         d="M49.74,45.27,49.41,45a.67.67,0,0,0-.92.06l-.58.65a.64.64,0,0,0,.06.91l.33.28c.93.81,2,1.94,2,3a1.14,1.14,0,0,1-.24.94h0a4.79,4.79,0,0,1-1.92,1.6,4.58,4.58,0,0,1-1.51.68l-.7.27a.62.62,0,0,0-.39.77l.21.74a.64.64,0,0,0,.8.44l.42-.11c.49-.14,4.74-1.39,5.44-4.42C52.84,49,51.93,47.16,49.74,45.27Z"
         class="cls-1" />
      <path
         id="path14"
         d="M18.93,44.76l-.54-.68a.64.64,0,0,1,.11-.9l.35-.27C24.94,38.23,31,35.69,37,35.35l1.41-.05a14.25,14.25,0,0,0,6.86-1.43,14.19,14.19,0,0,0,6.06-7l.18-.4a.65.65,0,0,1,.86-.32l.8.35a.63.63,0,0,1,.33.84l-.17.4a16.28,16.28,0,0,1-7,8,16.29,16.29,0,0,1-7.84,1.68c-.46,0-.91,0-1.35.06-5.47.31-11.16,2.7-16.89,7.1l-.34.27A.67.67,0,0,1,18.93,44.76Z"
         class="cls-1" />
      <path
         id="path16"
         d="M12.21,22.54,11.49,22a.63.63,0,0,1-.15-.89l.26-.35a26.41,26.41,0,0,0,3.14-5.67,39.63,39.63,0,0,0,2.12-6.74L16.93,8a.65.65,0,0,1,.74-.54l.87.13a.64.64,0,0,1,.54.74L19,8.71a42.82,42.82,0,0,1-2.25,7.2A28.5,28.5,0,0,1,13.37,22l-.25.35A.66.66,0,0,1,12.21,22.54Z"
         class="cls-1" />
      <path
         id="path18"
         d="M23.65,13.65l-.34-.8a.62.62,0,0,1,.34-.83l.41-.17c1.67-.69,7.14-3.25,7.51-7.16a4.22,4.22,0,0,0,0-.87l0-.43a.65.65,0,0,1,.59-.7L33,2.61a.66.66,0,0,1,.71.58l0,.43a6.84,6.84,0,0,1,0,1.28c-.48,4.95-6.35,7.89-8.85,8.92l-.4.17A.65.65,0,0,1,23.65,13.65Z"
         class="cls-1" />
      <path
         id="path20"
         d="M32.46,23.09a.64.64,0,0,1-.77-.49l-.1-.42C30.49,17.2,31,13.88,33,12a5.74,5.74,0,0,1,2-1.12,10,10,0,0,0,1.41-.62c1.46-.83,3.77-4.11,5-8l.13-.41a.65.65,0,0,1,.81-.43l.84.25a.65.65,0,0,1,.44.8L43.52,3c-1.23,4-3.79,8-6,9.2a11.59,11.59,0,0,1-1.74.77,3.84,3.84,0,0,0-1.35.7c-1.39,1.24-1.66,4-.75,8.09l.09.42a.65.65,0,0,1-.5.77Z"
         class="cls-1" />
      <path
         id="path22"
         d="M39.32,15a6.36,6.36,0,0,1-4.09-1.29,5.46,5.46,0,0,1-.68-.68l-.28-.33a.63.63,0,0,1,.08-.9L35,11.2a.65.65,0,0,1,.91.08l.29.34a3,3,0,0,0,.4.39c1.65,1.35,4.41.69,5.51.34l.42-.13a.65.65,0,0,1,.82.42l.27.82a.63.63,0,0,1-.43.8l-.42.13A11.79,11.79,0,0,1,39.32,15Z"
         class="cls-1" />
      <path
         id="path24"
         d="M61.29,4.8l-.11,0-.48.06a.26.26,0,0,1-.23-.06l-.18,0a6.45,6.45,0,0,0-2,.64C56.44,6.42,55.16,9,54.52,13l-.11.61a.64.64,0,0,0,.52.75l.86.16a.65.65,0,0,0,.76-.52l.08-.42a2.19,2.19,0,0,0,0-.25c.7-4.36,2-5.61,2.67-6a4.69,4.69,0,0,1,1.31-.43l.43-.07a.64.64,0,0,0,.54-.74l-.23-1.3Z"
         class="cls-1" />
      <path
         id="path26"
         d="M53.56,36.45l-.67-.56a.63.63,0,0,1-.08-.9l.28-.33c2.13-2.48,3.14-4.93,3-7.29a9.23,9.23,0,0,0-.33-1.88,5.63,5.63,0,0,1-.2-2.67c.55-2.81,3.46-5,8.92-6.72l.42-.13a.64.64,0,0,1,.81.42l.27.82a.63.63,0,0,1-.42.8l-.42.14c-4.49,1.41-7.07,3.16-7.44,5.07A3.79,3.79,0,0,0,57.9,25a11.06,11.06,0,0,1,.38,2.28c.16,2.92-1,5.87-3.52,8.78l-.28.33A.66.66,0,0,1,53.56,36.45Z"
         class="cls-1" />
      <path
         id="path28"
         d="M70.14,19.9a3.07,3.07,0,0,1,2.56-.26.66.66,0,0,0,.78-.47l.15-.6a.66.66,0,0,0-.48-.78l-.43-.1a5.48,5.48,0,0,0-2.73,0c-2.43.66-4.24,3.12-4.61,6.27l0,.43a.65.65,0,0,0,.58.71l.87.1a.64.64,0,0,0,.72-.57l0-.42a5.29,5.29,0,0,1,2.55-4.28S70.12,19.91,70.14,19.9Z"
         class="cls-1" />
      <path
         id="path30"
         d="M13.24,44.5a.64.64,0,0,1-.71-.58l0-.43c-.59-6.21.3-9.88,2.73-11.22a5.77,5.77,0,0,1,2.88-.57A2.8,2.8,0,0,0,20,31.3c.95-.75,1.19-2.63.7-5.41l-.07-.43a.63.63,0,0,1,.53-.74l.86-.15a.65.65,0,0,1,.75.52l.08.43c.65,3.65.15,6.16-1.48,7.45a4.89,4.89,0,0,1-3.24.88,3.76,3.76,0,0,0-1.82.29c-1.53.85-2.11,4.1-1.63,9.16l0,.42a.64.64,0,0,1-.59.7Z"
         class="cls-1" />
      <path
         id="path32"
         d="M29.1,38.62a.65.65,0,0,1-.73-.55l-.06-.43a14.39,14.39,0,0,1,0-4,14.7,14.7,0,0,1,1.76-5.2l.21-.38a.66.66,0,0,1,.89-.25l.77.42a.64.64,0,0,1,.25.87l-.21.38a12.53,12.53,0,0,0-1.51,7.91l.06.43a.64.64,0,0,1-.56.72Z"
         class="cls-1" />
      <path
         id="path34"
         d="M42.12,36.49l-.86-.19a.63.63,0,0,1-.49-.76l.1-.42c.42-1.84.31-3.15-.33-3.91a2.85,2.85,0,0,0-1.2-.76,5.69,5.69,0,0,1-2-1.35A6.4,6.4,0,0,1,35.94,24l0-.43a.66.66,0,0,1,.71-.58l.88.08a.65.65,0,0,1,.59.69l0,.43a4.42,4.42,0,0,0,.81,3.47,3.45,3.45,0,0,0,1.31.83,4.85,4.85,0,0,1,2,1.36c1.08,1.29,1.34,3.22.76,5.74L42.9,36A.65.65,0,0,1,42.12,36.49Z"
         class="cls-1" />
      <path
         id="path36"
         d="M28.1,49.56a.66.66,0,0,1-.85.35l-.41-.16a3.49,3.49,0,0,1-2.32-2.1c-.69-2.39,2.74-4.32,3.86-4.95a17.79,17.79,0,0,1,7-2c.89-.12,1.81-.25,2.81-.44a34.32,34.32,0,0,0,9.21-3.16l.39-.2a.65.65,0,0,1,.87.28l.41.76a.65.65,0,0,1-.28.87l-.39.2a36.84,36.84,0,0,1-9.8,3.36c-1.06.2-2,.33-2.92.45a15.81,15.81,0,0,0-6.24,1.76,8.47,8.47,0,0,0-2.61,2,.64.64,0,0,0,.16.92,3.85,3.85,0,0,0,.64.31l.4.16a.63.63,0,0,1,.36.83Z"
         class="cls-1" />
      <path
         id="path38"
         d="M76.82,34.74a5.44,5.44,0,0,0-3.39-4.67,6,6,0,0,0-5.43.67l-.35.25a.63.63,0,0,0-.14.89l.52.7a.66.66,0,0,0,.9.14l.36-.25a3.67,3.67,0,0,1,3.3-.42A3.31,3.31,0,0,1,74,33.21l.38.47a3.86,3.86,0,0,1,.38.5h0a5.94,5.94,0,0,1,.84,1.31.63.63,0,0,0,.63.35h0a.63.63,0,0,0,.6-.68Z"
         class="cls-1" />
      <path
         id="path40"
         d="M60.93,53.53a.65.65,0,0,0-.74-.54l-.43.07c-6,.9-7.23-2.25-7.3-2.44l-.13-.4a.66.66,0,0,0-.82-.41l-.81.26a.7.7,0,0,0-.42.42.82.82,0,0,1-.09.19l.2.62c.07.19,1.43,4.07,7.32,4.07a16.13,16.13,0,0,0,2.38-.19l.43-.07a.64.64,0,0,0,.55-.73Z"
         class="cls-1" />
    </g>
  </g>
</svg>
