<svg xmlns="http://www.w3.org/2000/svg" viewBox="0 0 76.47 74.54"><defs><style>.cls-1{fill:#fff;}</style></defs><title>Ativo 6MarketplaceIcons</title><g id="Camada_2" data-name="Camada 2"><g id="Camada_3" data-name="Camada 3"><path class="cls-1" d="M65.88,64.72H10.2V9H65.88Zm-53.68-2H63.88V11H12.2Z"/><path class="cls-1" d="M55.84,54.68H20.24V19.08h35.6Zm-33.6-2h31.6V21.08H22.24Z"/><rect class="cls-1" x="28.96" y="37.62" width="18.92" height="2"/><rect class="cls-1" x="28.96" y="43.03" width="18.92" height="2"/><rect class="cls-1" y="17.15" width="11.2" height="2"/><rect class="cls-1" x="65.27" y="17.15" width="11.2" height="2"/><rect class="cls-1" x="65.27" y="29.9" width="11.2" height="2"/><rect class="cls-1" x="65.27" y="42.64" width="11.2" height="2"/><rect class="cls-1" x="65.27" y="55.38" width="11.2" height="2"/><rect class="cls-1" y="29.9" width="11.2" height="2"/><rect class="cls-1" y="42.64" width="11.2" height="2"/><rect class="cls-1" y="55.38" width="11.2" height="2"/><rect class="cls-1" x="17.73" width="2" height="10.04"/><rect class="cls-1" x="30.67" width="2" height="10.04"/><rect class="cls-1" x="43.61" width="2" height="10.04"/><rect class="cls-1" x="56.54" width="2" height="10.04"/><rect class="cls-1" x="17.83" y="63.72" width="2" height="10.81"/><rect class="cls-1" x="30.67" y="63.72" width="2" height="10.81"/><rect class="cls-1" x="43.51" y="63.72" width="2" height="10.81"/><rect class="cls-1" x="56.35" y="63.72" width="2" height="10.81"/></g></g></svg>